<?xml version="1.0" encoding="UTF-8"?>
<svg id="logosandtypes_com" data-name="logosandtypes com" xmlns="http://www.w3.org/2000/svg" viewBox="0 0 150 150">
  <defs>
    <style>
      .cls-1 {
        fill: none;
      }
    </style>
  </defs>
  <g id="Layer_3" data-name="Layer 3">
    <g id="Layer_3-2" data-name="Layer 3">
      <g id="Layer_2" data-name="Layer 2">
        <path id="Layer_3-3" data-name="Layer 3" class="cls-1" d="M0,0H150V150H0V0Z"/>
      </g>
    </g>
  </g>
  <path d="M134.12,48.14c.22,9.28-3.39,18.33-8.95,25.65-.36,.48-.75,.94-1.17,1.37-3.64,4.07-8.34,7.13-13.4,9.07-6.58,2.45-13.7,2.89-20.47,4.75-16.1,3.72-17.62,20.02-23.05,32.96-4.42,12.26-15.45,21.94-28.39,14.32-1.07-.75-2.09-1.57-3.04-2.46-8.67-8.86-10.23-22.06-12.47-33.72-2.07-12.26-3.51-24.71-3.03-37.16,.76-11.87,4.33-24.06,13.12-32.5,13.15-11.74,31.16-18.07,48.68-18.36,12.72,.52,26.14,2.85,36.84,10.13,8.46,5.88,15.82,15.16,15.38,25.93,0,0-.04,.03-.04,.03Z"/>
</svg>